<svg width="18" height="12" viewBox="0 0 18 12" fill="none" xmlns="http://www.w3.org/2000/svg">
<path fill-rule="evenodd" clip-rule="evenodd" d="M0 1C0 0.447715 0.447715 0 1 0H17C17.5523 0 18 0.447715 18 1C18 1.55228 17.5523 2 17 2H1C0.447716 2 0 1.55228 0 1ZM0 11C0 10.4477 0.447715 10 1 10H17C17.5523 10 18 10.4477 18 11C18 11.5523 17.5523 12 17 12H1C0.447716 12 0 11.5523 0 11ZM1 5C0.447715 5 0 5.44772 0 6C0 6.55228 0.447716 7 1 7H17C17.5523 7 18 6.55228 18 6C18 5.44772 17.5523 5 17 5H1Z" fill="white"/>
</svg>
