<svg width="24" height="38" viewBox="0 0 24 38" fill="none" xmlns="http://www.w3.org/2000/svg">
<g id="Group">
<path id="Vector" d="M4.875 7.125C4.875 5.23533 5.62567 3.42306 6.96186 2.08686C8.29806 0.750667 10.1103 0 12 0C13.8897 0 15.7019 0.750667 17.0381 2.08686C18.3743 3.42306 19.125 5.23533 19.125 7.125V19C19.125 20.8897 18.3743 22.7019 17.0381 24.0381C15.7019 25.3743 13.8897 26.125 12 26.125C10.1103 26.125 8.29806 25.3743 6.96186 24.0381C5.62567 22.7019 4.875 20.8897 4.875 19V7.125Z" fill="white"/>
<path id="Vector_2" d="M1.3125 15.4375C1.62744 15.4375 1.92949 15.5626 2.15219 15.7853C2.37489 16.008 2.5 16.3101 2.5 16.625V19C2.5 21.5196 3.50089 23.9359 5.28249 25.7175C7.06408 27.4991 9.48044 28.5 12 28.5C14.5196 28.5 16.9359 27.4991 18.7175 25.7175C20.4991 23.9359 21.5 21.5196 21.5 19V16.625C21.5 16.3101 21.6251 16.008 21.8478 15.7853C22.0705 15.5626 22.3726 15.4375 22.6875 15.4375C23.0024 15.4375 23.3045 15.5626 23.5272 15.7853C23.7499 16.008 23.875 16.3101 23.875 16.625V19C23.875 21.9439 22.7816 24.7828 20.8068 26.9661C18.832 29.1493 16.1166 30.5212 13.1875 30.8156V35.625H20.3125C20.6274 35.625 20.9295 35.7501 21.1522 35.9728C21.3749 36.1955 21.5 36.4976 21.5 36.8125C21.5 37.1274 21.3749 37.4295 21.1522 37.6522C20.9295 37.8749 20.6274 38 20.3125 38H3.6875C3.37256 38 3.07051 37.8749 2.84781 37.6522C2.62511 37.4295 2.5 37.1274 2.5 36.8125C2.5 36.4976 2.62511 36.1955 2.84781 35.9728C3.07051 35.7501 3.37256 35.625 3.6875 35.625H10.8125V30.8156C7.88338 30.5212 5.16802 29.1493 3.19321 26.9661C1.21841 24.7828 0.124963 21.9439 0.125 19V16.625C0.125 16.3101 0.250111 16.008 0.472811 15.7853C0.69551 15.5626 0.997555 15.4375 1.3125 15.4375Z" fill="white"/>
</g>
</svg>
